<svg width="220" height="25" viewBox="0 0 220 25" fill="none" xmlns="http://www.w3.org/2000/svg">
<path d="M0.224 24.176C0.224 23.1413 0.229333 21.9147 0.24 20.496C0.261333 19.0667 0.282667 17.5627 0.304 15.984C0.336 14.3947 0.368 12.832 0.4 11.296C0.442667 9.76 0.48 8.352 0.512 7.072C0.554667 5.792 0.592 4.75733 0.624 3.968C0.965333 3.936 1.35467 3.90933 1.792 3.888C2.24 3.86667 2.68267 3.85067 3.12 3.84C3.55733 3.81867 3.93067 3.808 4.24 3.808C4.56 3.808 4.74667 3.808 4.8 3.808C4.81067 3.85067 4.90133 4.15467 5.072 4.72C5.25333 5.27467 5.48267 6.00533 5.76 6.912C6.03733 7.81867 6.336 8.82133 6.656 9.92C6.98667 11.0187 7.31733 12.1333 7.648 13.264C7.97867 14.384 8.288 15.4507 8.576 16.464C8.864 17.4667 9.09867 18.3307 9.28 19.056C9.46133 19.7707 9.568 20.2667 9.6 20.544L9.216 20.576C9.344 20.2133 9.54133 19.6213 9.808 18.8C10.0853 17.968 10.3947 17.0027 10.736 15.904C11.088 14.7947 11.4507 13.6373 11.824 12.432C12.1973 11.2267 12.5547 10.0533 12.896 8.912C13.248 7.77067 13.5467 6.752 13.792 5.856C14.048 4.96 14.2293 4.272 14.336 3.792C14.6347 3.792 15.0133 3.80267 15.472 3.824C15.9413 3.84533 16.4053 3.872 16.864 3.904C17.3333 3.92533 17.7067 3.96267 17.984 4.016C18.1973 5.01867 18.3413 6.352 18.416 8.016C18.4907 9.66933 18.528 11.4133 18.528 13.248C18.528 14.5813 18.5173 15.9413 18.496 17.328C18.4747 18.704 18.4427 19.984 18.4 21.168C18.3573 22.3413 18.304 23.3013 18.24 24.048C17.9093 24.048 17.5467 24.0373 17.152 24.016C16.7573 24.0053 16.3787 23.9893 16.016 23.968C15.664 23.936 15.3707 23.9147 15.136 23.904C15.2427 22.848 15.3173 21.6373 15.36 20.272C15.4133 18.9067 15.4453 17.5147 15.456 16.096C15.4667 15.2213 15.472 14.3147 15.472 13.376C15.472 12.4267 15.472 11.552 15.472 10.752C15.472 9.94133 15.472 9.328 15.472 8.912C15.344 9.424 15.1413 10.1173 14.864 10.992C14.5973 11.8667 14.288 12.8373 13.936 13.904C13.5947 14.96 13.2373 16.032 12.864 17.12C12.5013 18.208 12.1493 19.2373 11.808 20.208C11.4667 21.168 11.168 21.984 10.912 22.656C10.6667 23.328 10.4853 23.7707 10.368 23.984C10.2507 23.9947 10.0907 24 9.888 24C9.68533 24.0107 9.50933 24.016 9.36 24.016C9.14667 24.016 8.92267 24.0053 8.688 23.984C8.464 23.9627 8.22933 23.9413 7.984 23.92C7.96267 23.824 7.88267 23.5253 7.744 23.024C7.60533 22.512 7.424 21.856 7.2 21.056C6.976 20.2453 6.72533 19.36 6.448 18.4C6.17067 17.4293 5.888 16.4373 5.6 15.424C5.312 14.4107 5.02933 13.4347 4.752 12.496C4.48533 11.5467 4.24 10.6987 4.016 9.952C3.80267 9.20533 3.632 8.61867 3.504 8.192C3.504 9.25867 3.504 10.4533 3.504 11.776C3.504 13.088 3.504 14.416 3.504 15.76C3.504 17.104 3.49867 18.3627 3.488 19.536C3.488 20.7093 3.488 21.7067 3.488 22.528C3.488 23.3387 3.488 23.8613 3.488 24.096C3.24267 24.1067 2.93333 24.1173 2.56 24.128C2.18667 24.1387 1.792 24.1493 1.376 24.16C0.970667 24.1707 0.586667 24.176 0.224 24.176ZM29.23 24.336C27.8967 24.336 26.686 24.16 25.598 23.808C24.5207 23.4453 23.662 22.8693 23.022 22.08C22.382 21.28 22.062 20.2187 22.062 18.896C22.062 17.6267 22.4193 16.576 23.134 15.744C23.8487 14.912 24.814 14.2987 26.03 13.904C27.2567 13.4987 28.6273 13.296 30.142 13.296C30.846 13.296 31.534 13.3493 32.206 13.456C32.878 13.552 33.4593 13.6693 33.95 13.808C34.4407 13.936 34.7713 14.0373 34.942 14.112C34.91 13.76 34.846 13.4027 34.75 13.04C34.6647 12.6667 34.5313 12.3413 34.35 12.064C33.9447 11.3493 33.3527 10.7627 32.574 10.304C31.806 9.83467 30.8407 9.6 29.678 9.6C28.4513 9.6 27.4113 9.86667 26.558 10.4C25.7047 10.9227 25.0647 11.5467 24.638 12.272L22.046 10.56C22.5153 9.86667 23.134 9.25333 23.902 8.72C24.67 8.18667 25.5553 7.76533 26.558 7.456C27.5607 7.14667 28.638 6.992 29.79 6.992C31.582 6.992 33.0647 7.33333 34.238 8.016C35.4113 8.69867 36.27 9.6 36.814 10.72C37.0913 11.2853 37.31 11.904 37.47 12.576C37.63 13.248 37.726 14.08 37.758 15.072C37.7793 16.1173 37.8007 17.008 37.822 17.744C37.854 18.48 37.886 19.1147 37.918 19.648C37.9713 20.3413 38.078 20.7893 38.238 20.992C38.398 21.1947 38.6273 21.296 38.926 21.296C39.2673 21.296 39.5553 21.152 39.79 20.864C40.0247 20.5653 40.158 20.1493 40.19 19.616L41.726 21.312C41.662 22.208 41.3473 22.8907 40.782 23.36C40.2167 23.8293 39.5553 24.064 38.798 24.064C38.2007 24.064 37.6727 23.952 37.214 23.728C36.766 23.4933 36.4087 23.1947 36.142 22.832C35.8753 22.4693 35.7207 22.096 35.678 21.712C35.4647 22.1067 35.0487 22.5067 34.43 22.912C33.822 23.3173 33.07 23.6587 32.174 23.936C31.2887 24.2027 30.3073 24.336 29.23 24.336ZM29.806 21.824C30.4993 21.824 31.1767 21.7173 31.838 21.504C32.4993 21.2907 33.1073 21.008 33.662 20.656C34.2273 20.304 34.6913 19.9147 35.054 19.488C35.0433 18.8267 35.0433 18.24 35.054 17.728C35.0647 17.2053 35.0807 16.7253 35.102 16.288C34.7927 16.1813 34.2007 16.0427 33.326 15.872C32.4513 15.6907 31.4647 15.6 30.366 15.6C29.4167 15.6 28.5527 15.728 27.774 15.984C27.006 16.2293 26.3927 16.5867 25.934 17.056C25.486 17.5253 25.262 18.0907 25.262 18.752C25.262 19.552 25.454 20.176 25.838 20.624C26.2327 21.0613 26.7713 21.3707 27.454 21.552C28.1367 21.7333 28.9207 21.824 29.806 21.824ZM44.3648 24.144C44.2794 23.376 44.2048 22.4587 44.1408 21.392C44.0768 20.3253 44.0181 19.1893 43.9648 17.984C43.9114 16.7787 43.8688 15.568 43.8368 14.352C43.8048 13.136 43.7781 11.984 43.7568 10.896C43.7354 9.79733 43.7248 8.83733 43.7248 8.016C43.8848 7.96267 44.0981 7.90933 44.3648 7.856C44.6314 7.80267 44.9141 7.75467 45.2128 7.712C45.5114 7.66933 45.7941 7.63733 46.0608 7.616C46.3274 7.584 46.5461 7.568 46.7168 7.568C46.7274 7.73867 46.7381 7.98933 46.7488 8.32C46.7594 8.64 46.7701 8.98133 46.7808 9.344C46.8021 9.70667 46.8128 10.0373 46.8128 10.336C46.8234 10.624 46.8288 10.8267 46.8288 10.944C46.9141 10.72 47.0794 10.416 47.3248 10.032C47.5808 9.648 47.9274 9.25867 48.3648 8.864C48.8128 8.46933 49.3674 8.13867 50.0288 7.872C50.6901 7.60533 51.4688 7.472 52.3648 7.472C53.1754 7.472 53.8581 7.64267 54.4128 7.984C54.9781 8.32533 55.4368 8.77333 55.7888 9.328C56.1514 9.872 56.4234 10.464 56.6048 11.104C56.7114 11.4773 56.7861 11.8507 56.8288 12.224C56.8821 12.5973 56.9194 12.96 56.9408 13.312C57.1221 12.2987 57.4634 11.3333 57.9648 10.416C58.4768 9.488 59.1648 8.73067 60.0288 8.144C60.9034 7.55733 61.9701 7.264 63.2288 7.264C64.3914 7.264 65.3461 7.504 66.0928 7.984C66.8394 8.464 67.4208 9.14133 67.8368 10.016C68.2528 10.8907 68.5408 11.9307 68.7008 13.136C68.8714 14.3307 68.9568 15.6533 68.9568 17.104C68.9568 17.872 68.9354 18.688 68.8928 19.552C68.8608 20.416 68.8128 21.2587 68.7488 22.08C68.6954 22.8907 68.6368 23.616 68.5728 24.256C68.3168 24.288 68.0554 24.3093 67.7888 24.32C67.5221 24.3413 67.2554 24.352 66.9888 24.352C66.7328 24.352 66.4608 24.3413 66.1728 24.32C65.8954 24.3093 65.6128 24.2933 65.3248 24.272C65.5381 22.6933 65.7034 21.232 65.8208 19.888C65.9488 18.544 66.0128 17.344 66.0128 16.288C66.0128 14.272 65.7728 12.7413 65.2928 11.696C64.8128 10.6507 64.0234 10.128 62.9248 10.128C61.9328 10.128 61.1328 10.4213 60.5248 11.008C59.9274 11.5947 59.4688 12.384 59.1488 13.376C58.8394 14.368 58.6261 15.488 58.5088 16.736C58.3914 17.984 58.3221 19.2693 58.3008 20.592C58.2901 21.1573 58.2794 21.744 58.2688 22.352C58.2581 22.9493 58.2528 23.5467 58.2528 24.144C58.0928 24.1547 57.8794 24.1653 57.6128 24.176C57.3568 24.1973 57.0954 24.208 56.8288 24.208C56.5194 24.208 56.2101 24.1973 55.9008 24.176C55.5914 24.1653 55.3514 24.144 55.1808 24.112C55.1914 23.3973 55.1968 22.7093 55.1968 22.048C55.2074 21.3867 55.2128 20.7253 55.2128 20.064C55.2128 18.816 55.1701 17.6107 55.0848 16.448C55.0101 15.2853 54.8554 14.24 54.6208 13.312C54.3861 12.3733 54.0288 11.6267 53.5488 11.072C53.0688 10.5173 52.4288 10.24 51.6288 10.24C51.0314 10.24 50.4608 10.3947 49.9167 10.704C49.3834 11.0133 48.9034 11.4027 48.4768 11.872C48.0501 12.3307 47.7088 12.816 47.4528 13.328C47.1968 13.8293 47.0474 14.272 47.0048 14.656C47.0688 16.3627 47.1434 17.8933 47.2288 19.248C47.3248 20.6027 47.4101 21.712 47.4848 22.576C47.5701 23.4293 47.6288 23.9733 47.6608 24.208C47.5648 24.2187 47.3941 24.2293 47.1488 24.24C46.9034 24.2507 46.6848 24.256 46.4928 24.256C46.0874 24.256 45.6821 24.2453 45.2768 24.224C44.8821 24.2027 44.5781 24.176 44.3648 24.144ZM79.6675 24.336C78.3342 24.336 77.1235 24.16 76.0355 23.808C74.9582 23.4453 74.0995 22.8693 73.4595 22.08C72.8195 21.28 72.4995 20.2187 72.4995 18.896C72.4995 17.6267 72.8568 16.576 73.5715 15.744C74.2862 14.912 75.2515 14.2987 76.4675 13.904C77.6942 13.4987 79.0648 13.296 80.5795 13.296C81.2835 13.296 81.9715 13.3493 82.6435 13.456C83.3155 13.552 83.8968 13.6693 84.3875 13.808C84.8782 13.936 85.2088 14.0373 85.3795 14.112C85.3475 13.76 85.2835 13.4027 85.1875 13.04C85.1022 12.6667 84.9688 12.3413 84.7875 12.064C84.3822 11.3493 83.7902 10.7627 83.0115 10.304C82.2435 9.83467 81.2782 9.6 80.1155 9.6C78.8888 9.6 77.8488 9.86667 76.9955 10.4C76.1422 10.9227 75.5022 11.5467 75.0755 12.272L72.4835 10.56C72.9528 9.86667 73.5715 9.25333 74.3395 8.72C75.1075 8.18667 75.9928 7.76533 76.9955 7.456C77.9982 7.14667 79.0755 6.992 80.2275 6.992C82.0195 6.992 83.5022 7.33333 84.6755 8.016C85.8488 8.69867 86.7075 9.6 87.2515 10.72C87.5288 11.2853 87.7475 11.904 87.9075 12.576C88.0675 13.248 88.1635 14.08 88.1955 15.072C88.2168 16.1173 88.2382 17.008 88.2595 17.744C88.2915 18.48 88.3235 19.1147 88.3555 19.648C88.4088 20.3413 88.5155 20.7893 88.6755 20.992C88.8355 21.1947 89.0648 21.296 89.3635 21.296C89.7048 21.296 89.9928 21.152 90.2275 20.864C90.4622 20.5653 90.5955 20.1493 90.6275 19.616L92.1635 21.312C92.0995 22.208 91.7848 22.8907 91.2195 23.36C90.6542 23.8293 89.9928 24.064 89.2355 24.064C88.6382 24.064 88.1102 23.952 87.6515 23.728C87.2035 23.4933 86.8462 23.1947 86.5795 22.832C86.3128 22.4693 86.1582 22.096 86.1155 21.712C85.9022 22.1067 85.4862 22.5067 84.8675 22.912C84.2595 23.3173 83.5075 23.6587 82.6115 23.936C81.7262 24.2027 80.7448 24.336 79.6675 24.336ZM80.2435 21.824C80.9368 21.824 81.6142 21.7173 82.2755 21.504C82.9368 21.2907 83.5448 21.008 84.0995 20.656C84.6648 20.304 85.1288 19.9147 85.4915 19.488C85.4808 18.8267 85.4808 18.24 85.4915 17.728C85.5022 17.2053 85.5182 16.7253 85.5395 16.288C85.2302 16.1813 84.6382 16.0427 83.7635 15.872C82.8888 15.6907 81.9022 15.6 80.8035 15.6C79.8542 15.6 78.9902 15.728 78.2115 15.984C77.4435 16.2293 76.8302 16.5867 76.3715 17.056C75.9235 17.5253 75.6995 18.0907 75.6995 18.752C75.6995 19.552 75.8915 20.176 76.2755 20.624C76.6702 21.0613 77.2088 21.3707 77.8915 21.552C78.5742 21.7333 79.3582 21.824 80.2435 21.824ZM118.806 19.824C118.273 20.5813 117.627 21.2907 116.87 21.952C116.113 22.6027 115.249 23.136 114.278 23.552C113.318 23.9573 112.241 24.16 111.046 24.16C109.702 24.16 108.502 23.8827 107.446 23.328C106.401 22.7627 105.51 21.984 104.774 20.992C104.049 20 103.494 18.848 103.11 17.536C102.737 16.2133 102.55 14.7947 102.55 13.28C102.55 11.3067 102.875 9.53067 103.526 7.952C104.177 6.36267 105.137 5.104 106.406 4.176C107.686 3.248 109.243 2.784 111.078 2.784C112.614 2.784 114.033 3.12533 115.334 3.808C116.635 4.49067 117.622 5.44 118.294 6.656C118.123 6.848 117.883 7.072 117.574 7.328C117.265 7.584 116.95 7.82933 116.63 8.064C116.321 8.288 116.054 8.46933 115.83 8.608C115.755 8.448 115.617 8.208 115.414 7.888C115.222 7.568 114.939 7.24267 114.566 6.912C114.203 6.58133 113.729 6.29867 113.142 6.064C112.555 5.81867 111.835 5.696 110.982 5.696C110.363 5.696 109.761 5.84533 109.174 6.144C108.587 6.432 108.059 6.88 107.59 7.488C107.121 8.08533 106.747 8.864 106.47 9.824C106.193 10.7733 106.054 11.904 106.054 13.216C106.054 14.2933 106.182 15.3013 106.438 16.24C106.694 17.1787 107.046 18 107.494 18.704C107.942 19.408 108.465 19.9573 109.062 20.352C109.659 20.7467 110.305 20.944 110.998 20.944C111.883 20.944 112.673 20.768 113.366 20.416C114.07 20.0533 114.678 19.616 115.19 19.104C115.713 18.5813 116.155 18.0907 116.518 17.632C116.742 17.7707 117.009 17.9733 117.318 18.24C117.627 18.5067 117.915 18.784 118.182 19.072C118.459 19.3493 118.667 19.6 118.806 19.824ZM125.09 24.32C124.908 24.3413 124.668 24.3573 124.37 24.368C124.082 24.3787 123.783 24.384 123.474 24.384C123.143 24.384 122.818 24.368 122.498 24.336C122.178 24.3147 121.948 24.2827 121.81 24.24C121.906 23.4933 121.986 22.544 122.049 21.392C122.124 20.24 122.183 18.96 122.226 17.552C122.268 16.144 122.289 14.6827 122.289 13.168C122.289 11.792 122.268 10.4053 122.226 9.008C122.194 7.6 122.146 6.24533 122.082 4.944C122.018 3.64267 121.954 2.45333 121.89 1.376C121.964 1.344 122.124 1.30667 122.37 1.264C122.626 1.21066 122.908 1.16267 123.218 1.12C123.538 1.06667 123.842 1.024 124.13 0.991999C124.418 0.949333 124.636 0.922666 124.786 0.911999C124.946 1.712 125.079 2.71467 125.186 3.92C125.303 5.11467 125.394 6.42133 125.458 7.84C125.522 9.248 125.564 10.6773 125.586 12.128C125.948 11.6693 126.428 11.2373 127.026 10.832C127.634 10.416 128.306 10.08 129.042 9.824C129.778 9.55733 130.53 9.424 131.298 9.424C132.471 9.424 133.394 9.69067 134.066 10.224C134.748 10.7573 135.228 11.504 135.506 12.464C135.794 13.424 135.938 14.56 135.938 15.872C135.938 16.672 135.906 17.552 135.842 18.512C135.788 19.472 135.708 20.4373 135.602 21.408C135.506 22.368 135.404 23.264 135.298 24.096C135.052 24.128 134.791 24.1493 134.514 24.16C134.247 24.1813 133.975 24.192 133.698 24.192C133.41 24.192 133.122 24.176 132.834 24.144C132.556 24.1227 132.311 24.0907 132.098 24.048C132.172 23.536 132.252 22.96 132.338 22.32C132.423 21.6693 132.503 21.0027 132.578 20.32C132.652 19.6267 132.711 18.9493 132.754 18.288C132.807 17.6267 132.834 17.0133 132.834 16.448C132.834 15.6053 132.759 14.8693 132.61 14.24C132.471 13.6107 132.215 13.1253 131.842 12.784C131.468 12.432 130.93 12.256 130.226 12.256C129.639 12.256 129.084 12.3787 128.562 12.624C128.039 12.8693 127.564 13.168 127.138 13.52C126.722 13.872 126.375 14.208 126.098 14.528C125.831 14.8373 125.655 15.0613 125.57 15.2C125.57 16.3733 125.543 17.568 125.49 18.784C125.447 20 125.388 21.104 125.314 22.096C125.239 23.0773 125.164 23.8187 125.09 24.32ZM143.89 24.016C143.741 24.0267 143.506 24.0427 143.186 24.064C142.866 24.0853 142.541 24.096 142.21 24.096C141.912 24.096 141.624 24.0853 141.346 24.064C141.069 24.0427 140.808 24.016 140.562 23.984C140.605 23.7067 140.658 23.136 140.722 22.272C140.786 21.3973 140.85 20.3627 140.914 19.168C140.978 17.9733 141.037 16.7413 141.09 15.472C141.144 14.2027 141.186 13.0187 141.218 11.92C141.25 10.8107 141.266 9.93067 141.266 9.28C141.384 9.26933 141.57 9.25867 141.826 9.248C142.093 9.23733 142.381 9.22667 142.69 9.216C143 9.19467 143.293 9.17867 143.57 9.168C143.848 9.15733 144.056 9.152 144.194 9.152C144.237 9.44 144.264 9.88267 144.274 10.48C144.296 11.0667 144.306 11.7333 144.306 12.48C144.306 13.472 144.296 14.5547 144.274 15.728C144.264 16.9013 144.237 18.0533 144.194 19.184C144.152 20.3147 144.104 21.312 144.05 22.176C144.008 23.04 143.954 23.6533 143.89 24.016ZM142.914 6.656C142.189 6.656 141.613 6.43733 141.186 6C140.76 5.56267 140.546 5.01333 140.546 4.352C140.546 3.85067 140.653 3.43467 140.866 3.104C141.08 2.76267 141.357 2.50667 141.698 2.336C142.05 2.15467 142.429 2.064 142.834 2.064C143.485 2.064 144.008 2.29333 144.402 2.752C144.808 3.21067 145.01 3.78133 145.01 4.464C145.01 5.06133 144.818 5.57867 144.434 6.016C144.061 6.44267 143.554 6.656 142.914 6.656ZM161.711 23.952C161.711 23.7707 161.706 23.4987 161.695 23.136C161.685 22.7627 161.679 22.4 161.679 22.048C161.679 21.6853 161.679 21.4187 161.679 21.248C161.605 21.376 161.439 21.584 161.183 21.872C160.927 22.16 160.565 22.464 160.095 22.784C159.637 23.104 159.055 23.376 158.351 23.6C157.647 23.824 156.81 23.936 155.839 23.936C154.41 23.936 153.189 23.6267 152.175 23.008C151.162 22.3787 150.389 21.504 149.855 20.384C149.333 19.264 149.071 17.968 149.071 16.496C149.071 15.12 149.338 13.84 149.871 12.656C150.405 11.4613 151.205 10.496 152.271 9.76C153.338 9.024 154.671 8.656 156.271 8.656C157.231 8.656 158.085 8.76267 158.831 8.976C159.589 9.18933 160.218 9.44533 160.719 9.744C161.231 10.032 161.594 10.288 161.807 10.512C161.818 10.0427 161.845 9.46133 161.887 8.768C161.941 8.07467 161.994 7.33867 162.047 6.56C162.101 5.78133 162.154 5.02933 162.207 4.304C162.261 3.568 162.309 2.92267 162.351 2.368C162.405 1.81333 162.442 1.424 162.463 1.2C162.89 1.2 163.359 1.22133 163.871 1.264C164.394 1.30667 164.842 1.36533 165.215 1.44C165.023 3.936 164.874 6.42133 164.767 8.896C164.671 11.36 164.607 13.8507 164.575 16.368C164.543 18.8747 164.527 21.4293 164.527 24.032C164.367 24.032 164.095 24.0267 163.711 24.016C163.338 24.016 162.959 24.0107 162.575 24C162.191 23.9787 161.903 23.9627 161.711 23.952ZM156.607 20.992C157.343 20.992 157.999 20.8853 158.575 20.672C159.151 20.448 159.642 20.1813 160.047 19.872C160.453 19.552 160.783 19.2373 161.039 18.928C161.306 18.608 161.493 18.352 161.599 18.16C161.599 17.9147 161.599 17.5573 161.599 17.088C161.61 16.608 161.615 16.1067 161.615 15.584C161.626 15.0507 161.631 14.5547 161.631 14.096C161.642 13.6373 161.653 13.296 161.663 13.072C161.418 12.848 161.05 12.6027 160.559 12.336C160.079 12.0693 159.514 11.84 158.863 11.648C158.213 11.456 157.514 11.36 156.767 11.36C155.242 11.36 154.074 11.808 153.263 12.704C152.463 13.5893 152.063 14.7947 152.063 16.32C152.063 17.856 152.453 19.0187 153.231 19.808C154.021 20.5973 155.146 20.992 156.607 20.992ZM183.78 20.432C183.567 20.7307 183.252 21.0773 182.836 21.472C182.42 21.856 181.903 22.2293 181.284 22.592C180.666 22.944 179.946 23.2373 179.124 23.472C178.303 23.7067 177.375 23.824 176.34 23.824C174.74 23.824 173.338 23.4987 172.132 22.848C170.927 22.1973 169.994 21.248 169.332 20C168.671 18.7413 168.34 17.2107 168.34 15.408C168.34 13.68 168.698 12.1813 169.412 10.912C170.138 9.64267 171.13 8.66133 172.388 7.968C173.647 7.27467 175.092 6.928 176.724 6.928C178.772 6.928 180.367 7.552 181.508 8.8C182.66 10.048 183.3 11.7227 183.428 13.824C183.45 14.1653 183.46 14.496 183.46 14.816C183.46 15.1253 183.444 15.4453 183.412 15.776C183.274 15.7653 182.986 15.7547 182.548 15.744C182.122 15.7227 181.62 15.7067 181.044 15.696C180.468 15.6747 179.887 15.6587 179.3 15.648C178.724 15.6267 178.228 15.616 177.812 15.616C176.735 15.616 175.631 15.6693 174.5 15.776C173.37 15.8827 172.362 16.0053 171.476 16.144C171.487 16.4213 171.514 16.6933 171.556 16.96C171.599 17.2267 171.652 17.4827 171.716 17.728C171.898 18.3787 172.228 18.944 172.708 19.424C173.188 19.8933 173.759 20.256 174.42 20.512C175.092 20.768 175.802 20.896 176.548 20.896C177.338 20.896 178.026 20.7787 178.612 20.544C179.199 20.3093 179.7 20.0213 180.116 19.68C180.543 19.3387 180.884 19.0133 181.14 18.704C181.407 18.3947 181.61 18.1653 181.748 18.016C181.812 18.0693 181.935 18.1867 182.116 18.368C182.308 18.5387 182.511 18.7467 182.724 18.992C182.948 19.2373 183.156 19.488 183.348 19.744C183.551 19.9893 183.695 20.2187 183.78 20.432ZM171.524 14C172.292 13.872 173.194 13.76 174.228 13.664C175.274 13.568 176.458 13.52 177.78 13.52C178.474 13.52 179.06 13.5307 179.54 13.552C180.031 13.5627 180.372 13.5787 180.564 13.6C180.564 13.248 180.522 12.8747 180.436 12.48C180.319 11.9467 180.106 11.4293 179.796 10.928C179.487 10.4267 179.066 10.0107 178.532 9.68C178.01 9.33867 177.348 9.168 176.548 9.168C175.631 9.168 174.794 9.36533 174.036 9.76C173.29 10.144 172.692 10.6987 172.244 11.424C171.796 12.1387 171.556 12.9973 171.524 14ZM189.293 9.824C189.613 9.28 190.077 8.784 190.685 8.336C191.303 7.888 191.997 7.53067 192.765 7.264C193.543 6.99733 194.322 6.864 195.101 6.864C195.602 6.864 196.109 6.912 196.621 7.008C197.133 7.09333 197.533 7.216 197.821 7.376L197.181 10.592C196.925 10.4853 196.594 10.3733 196.189 10.256C195.794 10.128 195.303 10.064 194.717 10.064C194.087 10.064 193.458 10.1813 192.829 10.416C192.21 10.64 191.639 10.9493 191.117 11.344C190.594 11.7387 190.157 12.192 189.805 12.704C189.954 13.4507 190.098 14.3627 190.237 15.44C190.386 16.5173 190.519 17.6213 190.637 18.752C190.754 19.8827 190.85 20.9173 190.925 21.856C190.999 22.784 191.037 23.4827 191.037 23.952C190.578 23.9947 190.018 24.0213 189.357 24.032C188.695 24.0427 188.087 24.0427 187.533 24.032C187.533 23.04 187.511 21.9947 187.469 20.896C187.426 19.7867 187.357 18.656 187.261 17.504C187.175 16.3413 187.063 15.184 186.924 14.032C186.786 12.88 186.621 11.7653 186.429 10.688C186.247 9.6 186.039 8.57067 185.805 7.6C186.093 7.51467 186.429 7.42933 186.812 7.344C187.207 7.25867 187.57 7.184 187.901 7.12C188.231 7.056 188.455 7.01867 188.573 7.008C188.711 7.37067 188.855 7.84 189.005 8.416C189.154 8.992 189.25 9.46133 189.293 9.824ZM206.949 24.336C205.615 24.336 204.405 24.16 203.317 23.808C202.239 23.4453 201.381 22.8693 200.741 22.08C200.101 21.28 199.781 20.2187 199.781 18.896C199.781 17.6267 200.138 16.576 200.853 15.744C201.567 14.912 202.533 14.2987 203.749 13.904C204.975 13.4987 206.346 13.296 207.861 13.296C208.565 13.296 209.253 13.3493 209.925 13.456C210.597 13.552 211.178 13.6693 211.669 13.808C212.159 13.936 212.49 14.0373 212.661 14.112C212.629 13.76 212.565 13.4027 212.469 13.04C212.383 12.6667 212.25 12.3413 212.069 12.064C211.663 11.3493 211.071 10.7627 210.293 10.304C209.525 9.83467 208.559 9.6 207.397 9.6C206.17 9.6 205.13 9.86667 204.277 10.4C203.423 10.9227 202.783 11.5467 202.357 12.272L199.765 10.56C200.234 9.86667 200.853 9.25333 201.621 8.72C202.389 8.18667 203.274 7.76533 204.277 7.456C205.279 7.14667 206.357 6.992 207.509 6.992C209.301 6.992 210.783 7.33333 211.957 8.016C213.13 8.69867 213.989 9.6 214.533 10.72C214.81 11.2853 215.029 11.904 215.189 12.576C215.349 13.248 215.445 14.08 215.477 15.072C215.498 16.1173 215.519 17.008 215.541 17.744C215.573 18.48 215.605 19.1147 215.637 19.648C215.69 20.3413 215.797 20.7893 215.957 20.992C216.117 21.1947 216.346 21.296 216.645 21.296C216.986 21.296 217.274 21.152 217.509 20.864C217.743 20.5653 217.877 20.1493 217.909 19.616L219.445 21.312C219.381 22.208 219.066 22.8907 218.501 23.36C217.935 23.8293 217.274 24.064 216.517 24.064C215.919 24.064 215.391 23.952 214.933 23.728C214.485 23.4933 214.127 23.1947 213.861 22.832C213.594 22.4693 213.439 22.096 213.397 21.712C213.183 22.1067 212.767 22.5067 212.149 22.912C211.541 23.3173 210.789 23.6587 209.893 23.936C209.007 24.2027 208.026 24.336 206.949 24.336ZM207.525 21.824C208.218 21.824 208.895 21.7173 209.557 21.504C210.218 21.2907 210.826 21.008 211.381 20.656C211.946 20.304 212.41 19.9147 212.773 19.488C212.762 18.8267 212.762 18.24 212.773 17.728C212.783 17.2053 212.799 16.7253 212.821 16.288C212.511 16.1813 211.919 16.0427 211.045 15.872C210.17 15.6907 209.183 15.6 208.085 15.6C207.135 15.6 206.271 15.728 205.493 15.984C204.725 16.2293 204.111 16.5867 203.653 17.056C203.205 17.5253 202.981 18.0907 202.981 18.752C202.981 19.552 203.173 20.176 203.557 20.624C203.951 21.0613 204.49 21.3707 205.173 21.552C205.855 21.7333 206.639 21.824 207.525 21.824Z" fill="#E14E4E"/>
</svg>
