<svg width="166" height="29" viewBox="0 0 166 29" fill="none" xmlns="http://www.w3.org/2000/svg">
    <path
        d="M8.864 15.136H14.144V18.144C14.144 22.4 11.872 24.448 7.392 24.448C3.872 24.448 0.704 23.008 0.704 17.792V7.424C0.704 2.208 3.872 0.768 7.392 0.768C11.264 0.768 14.144 1.92 14.144 6.848V9.344H8.832V6.208C8.832 5.28 8.544 4.416 7.392 4.416C6.304 4.416 6.016 5.28 6.016 6.208V19.008C6.016 19.936 6.304 20.8 7.392 20.8C8.544 20.8 8.832 19.936 8.832 19.008L8.864 15.136ZM20.6038 24H15.5478V1.216H20.6038V7.968H20.6678C21.1798 6.368 22.3958 5.472 24.2517 5.472C26.8118 5.472 27.7718 7.168 27.7718 9.824V24H22.7158V11.616C22.7158 10.624 22.6838 9.632 21.6598 9.632C20.6358 9.632 20.6038 10.624 20.6038 11.616V24ZM34.2608 24H29.2048V5.696H34.2608V24ZM34.2608 4.448H29.2048V1.216H34.2608V4.448ZM40.792 5.696V24.416C40.792 27.168 39.672 28.096 36.984 28.096H33.464V24.768H34.136C35.384 24.768 35.736 24.448 35.736 22.72V5.696H40.792ZM35.736 1.216H40.792V4.448H35.736V1.216ZM47.3233 24H42.2673V5.696H47.3233V24ZM47.3233 4.448H42.2673V1.216H47.3233V4.448ZM53.8225 10.08V19.616C53.8225 20.288 54.0785 20.896 54.8785 20.896C55.6785 20.896 55.9345 20.288 55.9345 19.616V10.08C55.9345 9.408 55.6785 8.8 54.8785 8.8C54.0785 8.8 53.8225 9.408 53.8225 10.08ZM60.9905 10.624V19.36C60.9905 22.752 58.1105 24.224 54.8785 24.224C51.6465 24.224 48.7665 22.752 48.7665 19.36V10.624C48.7665 7.328 50.9425 5.472 54.8785 5.472C58.8145 5.472 60.9905 7.328 60.9905 10.624ZM67.4475 24H62.3915V1.216H67.4475V14.048H67.5115L70.1035 5.696H74.9995L72.0875 13.888L75.2555 24H70.1035L67.5115 14.432H67.4475V24ZM88.2405 15.424H81.0725V19.136C81.0725 20.224 81.4565 20.896 82.1285 20.896C82.9285 20.896 83.1845 20.224 83.1845 19.136V16.768H88.2405V19.456C88.2405 22.912 85.6805 24.224 82.1285 24.224C78.8965 24.224 76.0165 22.752 76.0165 19.36V10.624C76.0165 7.328 78.1925 5.472 82.1285 5.472C85.3605 5.472 88.2405 6.688 88.2405 10.624V15.424ZM81.0725 12.384H83.1845V9.888C83.1845 9.184 82.8325 8.8 82.1285 8.8C81.4245 8.8 81.0725 9.184 81.0725 9.888V12.384ZM110.519 9.376H105.207V6.176C105.207 5.056 104.855 4.416 103.799 4.416C102.647 4.416 102.391 5.056 102.391 6.176C102.391 10.016 110.519 11.136 110.519 18.176C110.519 22.464 108.215 24.448 103.767 24.448C100.375 24.448 97.079 23.296 97.079 19.36V15.136H102.391V19.072C102.391 20.416 102.807 20.8 103.799 20.8C104.663 20.8 105.207 20.416 105.207 19.072C105.207 13.92 97.079 13.824 97.079 6.464C97.079 2.336 99.799 0.768 103.895 0.768C107.479 0.768 110.519 1.984 110.519 5.792V9.376ZM116.979 10.88V18.816C116.979 19.616 117.427 20.064 118.035 20.064C118.643 20.064 119.091 19.616 119.091 18.816V10.88C119.091 10.08 118.643 9.632 118.035 9.632C117.427 9.632 116.979 10.08 116.979 10.88ZM116.979 5.696V8.096H117.043C117.299 6.176 118.675 5.472 120.531 5.472C123.315 5.472 124.147 7.84 124.147 10.144V20.256C124.147 22.496 123.187 24.224 120.627 24.224C118.771 24.224 117.491 23.264 117.043 21.6H116.979V28.096H111.923V5.696H116.979ZM130.604 17.312V19.296C130.604 19.936 131.052 20.256 131.532 20.256C132.588 20.256 132.716 19.552 132.716 17.92V14.752C131.724 15.456 130.604 15.872 130.604 17.312ZM132.716 24V21.856H132.652C132.044 23.168 131.116 24.224 129.1 24.224C126.892 24.224 125.548 22.88 125.548 20.48V17.76C125.548 12.96 132.716 13.536 132.716 10.144C132.716 9.408 132.492 8.8 131.66 8.8C130.828 8.8 130.604 9.408 130.604 10.144V12.16H125.548V10.464C125.548 6.784 128.62 5.472 131.66 5.472C134.7 5.472 137.772 6.784 137.772 10.464V24H132.716ZM144.229 11.008V16.256C144.229 16.928 144.453 17.632 145.285 17.632C146.117 17.632 146.341 16.928 146.341 16.256V11.008C146.341 10.336 146.117 9.632 145.285 9.632C144.453 9.632 144.229 10.336 144.229 11.008ZM151.397 5.696V22.24C151.397 27.328 147.397 28.096 145.157 28.096C141.285 28.096 139.173 26.176 139.173 24.224V22.432H144.229V23.648C144.229 24.288 144.485 24.768 145.285 24.768C146.085 24.768 146.341 24.288 146.341 23.648V19.104H146.245C146.085 20.672 144.805 21.792 143.173 21.792C140.197 21.792 139.173 19.84 139.173 17.184V9.696C139.173 6.784 140.741 5.472 142.469 5.472C144.517 5.472 145.541 6.4 146.245 8.064H146.309V5.696H151.397ZM157.854 24H152.798V1.216H157.854V7.968H157.918C158.43 6.368 159.646 5.472 161.502 5.472C164.062 5.472 165.022 7.168 165.022 9.824V24H159.966V11.616C159.966 10.624 159.934 9.632 158.91 9.632C157.886 9.632 157.854 10.624 157.854 11.616V24Z"
        fill="#26D52D" />
</svg>