<svg width="205" height="24" viewBox="0 0 205 24" fill="none" xmlns="http://www.w3.org/2000/svg">
    <path
        d="M20.552 20.312C20.8293 21.016 21.1493 21.528 21.512 21.848C21.8747 22.168 22.2267 22.3387 22.568 22.36V23C21.288 22.936 19.6667 22.904 17.704 22.904C15.528 22.904 13.9067 22.936 12.84 23V22.36C13.6507 22.3173 14.2267 22.2213 14.568 22.072C14.9093 21.9013 15.08 21.6133 15.08 21.208C15.08 20.824 14.952 20.312 14.696 19.672L12.776 14.424H5.8L4.968 16.632C4.37067 18.168 4.072 19.352 4.072 20.184C4.072 20.9733 4.30667 21.528 4.776 21.848C5.26667 22.1467 5.98133 22.3173 6.92 22.36V23C5.46933 22.936 4.14667 22.904 2.952 22.904C1.97067 22.904 1.16 22.936 0.52 23V22.36C1.56533 22.168 2.48267 21.048 3.272 19L10.568 0.279999C10.8027 0.301332 11.176 0.311998 11.688 0.311998C12.2 0.311998 12.5627 0.301332 12.776 0.279999L20.552 20.312ZM12.552 13.784L9.384 5.144L6.056 13.784H12.552ZM43.2718 4.184C42.5251 4.29067 41.9704 4.472 41.6078 4.728C41.2451 4.984 40.9998 5.38933 40.8718 5.944C40.7438 6.49867 40.6798 7.32 40.6798 8.408V14.328C40.6798 15.8 40.5731 17.0587 40.3598 18.104C40.1678 19.128 39.8371 20.024 39.3678 20.792C38.8558 21.6027 38.0878 22.2533 37.0638 22.744C36.0611 23.2133 34.9198 23.448 33.6398 23.448C31.2291 23.448 29.3518 22.9787 28.0078 22.04C27.2611 21.4853 26.6958 20.888 26.3118 20.248C25.9278 19.608 25.6504 18.84 25.4798 17.944C25.3304 17.0267 25.2558 15.8533 25.2558 14.424V6.936C25.2558 6.12533 25.1918 5.53867 25.0638 5.176C24.9571 4.81333 24.7331 4.568 24.3918 4.44C24.0718 4.312 23.5598 4.22667 22.8558 4.184V3.544C23.9224 3.608 25.5438 3.64 27.7198 3.64C29.7891 3.64 31.3998 3.608 32.5518 3.544V4.184C31.8264 4.22667 31.3038 4.312 30.9838 4.44C30.6638 4.568 30.4398 4.81333 30.3118 5.176C30.2051 5.53867 30.1518 6.12533 30.1518 6.936V14.968C30.1518 16.504 30.2478 17.7733 30.4398 18.776C30.6531 19.7787 31.0904 20.5893 31.7517 21.208C32.4131 21.8267 33.3944 22.136 34.6958 22.136C36.6371 22.136 37.9918 21.4853 38.7598 20.184C39.5491 18.8613 39.9438 17.0267 39.9438 14.68V8.792C39.9438 7.55467 39.8691 6.63733 39.7198 6.04C39.5704 5.44267 39.2824 5.016 38.8558 4.76C38.4291 4.48267 37.7571 4.29067 36.8398 4.184V3.544C37.6718 3.608 38.8238 3.64 40.2958 3.64C41.5758 3.64 42.5678 3.608 43.2718 3.544V4.184ZM64.8083 4.184C64.1043 4.29067 63.5816 4.45067 63.2403 4.664C62.9203 4.87733 62.6963 5.21867 62.5683 5.688C62.4616 6.15733 62.4083 6.872 62.4083 7.832V23.064L61.5443 23.032L60.7123 23.064L47.9123 7.16V18.712C47.9123 19.6507 47.9976 20.3653 48.1683 20.856C48.3389 21.3253 48.6483 21.6667 49.0963 21.88C49.5443 22.0933 50.2483 22.2533 51.2083 22.36V23C50.2483 22.936 49.0323 22.904 47.5603 22.904C46.3869 22.904 45.4589 22.936 44.7763 23V22.36C45.4803 22.2533 45.9923 22.0933 46.3123 21.88C46.6536 21.6667 46.8776 21.3253 46.9843 20.856C47.1123 20.3867 47.1763 19.672 47.1763 18.712V6.936C47.1763 6.12533 47.1123 5.53867 46.9843 5.176C46.8776 4.81333 46.6536 4.568 46.3123 4.44C45.9923 4.312 45.4803 4.22667 44.7763 4.184V3.544C45.4589 3.608 46.3869 3.64 47.5603 3.64C49.0749 3.64 50.3763 3.608 51.4643 3.544L61.6723 16.216V7.832C61.6723 6.89333 61.5869 6.18933 61.4163 5.72C61.2456 5.22933 60.9256 4.87733 60.4563 4.664C60.0083 4.45067 59.3149 4.29067 58.3763 4.184V3.544C59.3149 3.608 60.5309 3.64 62.0243 3.64C63.2189 3.64 64.1469 3.608 64.8083 3.544V4.184ZM85.622 3.544C85.4727 5.16533 85.398 6.616 85.398 7.896C85.398 9.09067 85.43 10.0293 85.494 10.712H84.758C84.4593 9.09067 84.0967 7.82133 83.67 6.904C83.2647 5.98667 82.7313 5.32533 82.07 4.92C81.43 4.49333 80.598 4.28 79.574 4.28H78.582V19.288C78.582 20.184 78.6673 20.8347 78.838 21.24C79.0087 21.6453 79.3073 21.9227 79.734 22.072C80.1607 22.2213 80.854 22.3173 81.814 22.36V23C80.662 22.936 78.742 22.904 76.054 22.904C73.3447 22.904 71.478 22.936 70.454 23V22.36C71.414 22.3173 72.1073 22.2213 72.534 22.072C72.9607 21.9227 73.2593 21.6453 73.43 21.24C73.6007 20.8347 73.686 20.184 73.686 19.288V4.28H72.694C71.67 4.28 70.8273 4.49333 70.166 4.92C69.526 5.32533 68.9927 5.98667 68.566 6.904C68.1607 7.82133 67.8087 9.09067 67.51 10.712H66.774C66.838 10.0293 66.87 9.09067 66.87 7.896C66.87 6.616 66.7953 5.16533 66.646 3.544C68.502 3.608 71.638 3.64 76.054 3.64C80.5553 3.64 83.7447 3.608 85.622 3.544ZM103.011 3.64C104.078 3.64 104.899 3.608 105.475 3.544V4.184C105.049 4.376 104.611 4.73867 104.163 5.272C103.737 5.784 103.225 6.56267 102.627 7.608L98.9793 14.328V19.416C98.9793 20.2693 99.0539 20.8987 99.2033 21.304C99.3526 21.688 99.6299 21.9547 100.035 22.104C100.441 22.232 101.081 22.3173 101.955 22.36V23C100.846 22.936 99.0113 22.904 96.4513 22.904C93.8486 22.904 92.0673 22.936 91.1073 23V22.36C91.9819 22.3173 92.6219 22.232 93.0273 22.104C93.4326 21.9547 93.7099 21.688 93.8593 21.304C94.0086 20.8987 94.0833 20.2693 94.0833 19.416V15.96L88.3553 6.008C87.9926 5.38933 87.6726 4.952 87.3953 4.696C87.1179 4.44 86.8193 4.28 86.4992 4.216V3.544C87.8219 3.65067 89.0806 3.704 90.2753 3.704C91.9606 3.704 93.8379 3.65067 95.9073 3.544V4.216C95.2673 4.216 94.7659 4.28 94.4033 4.408C94.0406 4.51467 93.8593 4.73867 93.8593 5.08C93.8593 5.35733 93.9766 5.688 94.2113 6.072L98.5633 13.656L100.611 9.912C101.422 8.41867 101.827 7.192 101.827 6.232C101.827 4.93067 101.027 4.248 99.4273 4.184V3.544C100.729 3.608 101.923 3.64 103.011 3.64ZM123.164 0.983999C122.438 1.02667 121.916 1.112 121.595 1.24C121.276 1.368 121.052 1.61333 120.924 1.976C120.817 2.33867 120.764 2.92533 120.764 3.736V19.608C120.764 20.4187 120.817 21.0053 120.924 21.368C121.052 21.7307 121.276 21.976 121.595 22.104C121.916 22.232 122.438 22.3173 123.164 22.36V23C122.012 22.936 120.401 22.904 118.332 22.904C116.049 22.904 114.364 22.936 113.276 23V22.36C113.98 22.3173 114.492 22.232 114.812 22.104C115.153 21.976 115.377 21.7307 115.484 21.368C115.612 21.0053 115.676 20.4187 115.676 19.608V3.736C115.676 2.92533 115.612 2.33867 115.484 1.976C115.377 1.61333 115.153 1.368 114.812 1.24C114.492 1.112 113.98 1.02667 113.276 0.983999V0.344C114.364 0.407999 116.049 0.439999 118.332 0.439999C120.401 0.439999 122.012 0.407999 123.164 0.344V0.983999ZM140.543 3.64C141.609 3.64 142.431 3.608 143.007 3.544V4.184C142.58 4.376 142.143 4.73867 141.694 5.272C141.268 5.784 140.756 6.56267 140.159 7.608L136.511 14.328V19.416C136.511 20.2693 136.585 20.8987 136.735 21.304C136.884 21.688 137.161 21.9547 137.567 22.104C137.972 22.232 138.612 22.3173 139.487 22.36V23C138.377 22.936 136.543 22.904 133.983 22.904C131.38 22.904 129.599 22.936 128.639 23V22.36C129.513 22.3173 130.153 22.232 130.559 22.104C130.964 21.9547 131.241 21.688 131.391 21.304C131.54 20.8987 131.615 20.2693 131.615 19.416V15.96L125.887 6.008C125.524 5.38933 125.204 4.952 124.927 4.696C124.649 4.44 124.351 4.28 124.03 4.216V3.544C125.353 3.65067 126.612 3.704 127.807 3.704C129.492 3.704 131.369 3.65067 133.439 3.544V4.216C132.799 4.216 132.297 4.28 131.935 4.408C131.572 4.51467 131.391 4.73867 131.391 5.08C131.391 5.35733 131.508 5.688 131.743 6.072L136.095 13.656L138.143 9.912C138.953 8.41867 139.359 7.192 139.359 6.232C139.359 4.93067 138.559 4.248 136.959 4.184V3.544C138.26 3.608 139.455 3.64 140.543 3.64ZM158.648 20.312C159.266 21.6347 159.938 22.3173 160.664 22.36V23C159.64 22.936 158.242 22.904 156.472 22.904C154.189 22.904 152.504 22.936 151.416 23V22.36C152.12 22.3173 152.642 22.2107 152.984 22.04C153.325 21.848 153.496 21.5387 153.496 21.112C153.496 20.728 153.357 20.248 153.08 19.672L151.48 16.024H144.76L144.376 16.888C143.778 18.296 143.48 19.3947 143.48 20.184C143.48 20.9093 143.714 21.4427 144.184 21.784C144.653 22.1253 145.346 22.3173 146.264 22.36V23C145.048 22.936 143.821 22.904 142.584 22.904C141.432 22.904 140.568 22.936 139.992 23V22.36C140.504 22.2533 140.973 21.9333 141.4 21.4C141.848 20.8453 142.317 20.024 142.808 18.936L149.56 3.48C149.73 3.50133 149.976 3.512 150.296 3.512C150.637 3.512 150.882 3.50133 151.032 3.48L158.648 20.312ZM151.192 15.384L148.12 8.376L145.048 15.384H151.192ZM172.758 12.632C175.446 12.9093 177.345 13.496 178.454 14.392C179.564 15.288 180.118 16.408 180.118 17.752C180.118 19.3947 179.382 20.6853 177.91 21.624C176.438 22.5413 174.337 23 171.606 23C171.009 23 170.497 22.9893 170.07 22.968C168.62 22.9253 167.212 22.904 165.846 22.904C163.948 22.904 162.497 22.936 161.494 23V22.36C162.22 22.3173 162.742 22.232 163.062 22.104C163.382 21.976 163.596 21.7307 163.702 21.368C163.83 21.0053 163.894 20.4187 163.894 19.608V6.936C163.894 6.12533 163.83 5.53867 163.702 5.176C163.596 4.81333 163.382 4.568 163.062 4.44C162.742 4.312 162.22 4.22667 161.494 4.184V3.544C162.497 3.608 163.926 3.64 165.782 3.64L169.43 3.608C169.857 3.58667 170.337 3.576 170.87 3.576C173.43 3.576 175.329 3.96 176.566 4.728C177.825 5.47467 178.454 6.552 178.454 7.96C178.454 9.048 178.006 9.98667 177.11 10.776C176.214 11.544 174.764 12.1413 172.758 12.568V12.632ZM170.454 4.184C169.985 4.184 169.633 4.25867 169.398 4.408C169.164 4.55733 169.004 4.824 168.918 5.208C168.833 5.592 168.79 6.168 168.79 6.936V12.568H169.846C171.212 12.568 172.15 12.1947 172.662 11.448C173.196 10.7013 173.462 9.656 173.462 8.312C173.462 6.92533 173.228 5.89067 172.758 5.208C172.289 4.52533 171.521 4.184 170.454 4.184ZM170.486 22.264C172.044 22.264 173.185 21.88 173.91 21.112C174.636 20.3227 174.998 19.16 174.998 17.624C174.998 16.1307 174.625 15.0107 173.878 14.264C173.153 13.496 171.99 13.112 170.39 13.112H168.79V19.608C168.79 20.376 168.833 20.9413 168.918 21.304C169.004 21.6667 169.164 21.9227 169.398 22.072C169.633 22.2 169.996 22.264 170.486 22.264ZM193.348 3.096C195.502 3.096 197.39 3.49067 199.012 4.28C200.633 5.048 201.892 6.18933 202.788 7.704C203.684 9.19733 204.132 10.9893 204.132 13.08C204.132 15.128 203.673 16.9413 202.756 18.52C201.838 20.0773 200.558 21.2933 198.916 22.168C197.273 23.0213 195.406 23.448 193.316 23.448C191.161 23.448 189.273 23.064 187.652 22.296C186.03 21.5067 184.772 20.3653 183.876 18.872C182.98 17.3573 182.532 15.5547 182.532 13.464C182.532 11.416 182.99 9.61333 183.908 8.056C184.825 6.47733 186.105 5.26133 187.748 4.408C189.39 3.53333 191.257 3.096 193.348 3.096ZM193.22 3.672C192.11 3.672 191.129 4.088 190.276 4.92C189.444 5.73067 188.793 6.872 188.324 8.344C187.876 9.79467 187.652 11.4587 187.652 13.336C187.652 15.2347 187.908 16.9093 188.42 18.36C188.932 19.8107 189.625 20.9307 190.5 21.72C191.396 22.488 192.377 22.872 193.444 22.872C194.553 22.872 195.524 22.4667 196.356 21.656C197.209 20.824 197.86 19.6827 198.308 18.232C198.777 16.76 199.012 15.0853 199.012 13.208C199.012 11.3093 198.756 9.63467 198.244 8.184C197.732 6.73333 197.028 5.624 196.132 4.856C195.257 4.06667 194.286 3.672 193.22 3.672Z"
        fill="#546FFF" />
</svg>