<svg width="379" height="24" viewBox="0 0 379 24" fill="none" xmlns="http://www.w3.org/2000/svg">
<path d="M7.3125 21.7656H10.0469V15.1875L3.3125 2.07812H0.921875V0.859375H17.6094V2.07812H14.9531L20.0312 12.9062L24.5625 3.04688C24.5938 2.97396 24.6094 2.88542 24.6094 2.78125C24.6094 2.64583 24.5365 2.53646 24.3906 2.45312C24.2552 2.35938 24.0625 2.28646 23.8125 2.23438C23.5625 2.18229 23.2604 2.14583 22.9062 2.125C22.5625 2.09375 22.1823 2.07812 21.7656 2.07812V0.859375H28.8906V2.07812C28.4323 2.07812 28.0469 2.09375 27.7344 2.125C27.4219 2.14583 27.1615 2.19271 26.9531 2.26562C26.7552 2.33854 26.5938 2.4375 26.4688 2.5625C26.3542 2.6875 26.25 2.84896 26.1562 3.04688L20.8281 14.4688V21.7656H23.5625V23H7.3125V21.7656ZM30.2031 21.7656H32.9375V2.07812H30.2031V0.859375H54.4062V8.46875H53.3438L49 2.07812H43.7188V11.375H46.0781L48.1406 6.21875H49.1562V17.7812H48.1406L46.0781 12.5938H43.7188V21.7656H49.5469L54.0781 14.6562H55.1562V23H30.2031V21.7656ZM59.0625 21.7656C59.9688 21.7656 60.651 21.7188 61.1094 21.625C61.5677 21.5208 61.7969 21.2708 61.7969 20.875V2.07812H59.0625V0.859375H71.5938L74.4688 10.1094L77.5 0.859375H90.5625V2.07812H87.8281V21.7656H90.5625V23H74.7656V21.7656H77.5V5.35938L71.7344 23H68.8594L63.125 5.5625V20.7969C63.125 21.2344 63.349 21.5052 63.7969 21.6094C64.2552 21.7135 64.9427 21.7656 65.8594 21.7656V23H59.0625V21.7656ZM110.25 21.7656H112.984V15.1875L106.25 2.07812H103.859V0.859375H120.547V2.07812H117.891L122.969 12.9062L127.5 3.04688C127.531 2.97396 127.547 2.88542 127.547 2.78125C127.547 2.64583 127.474 2.53646 127.328 2.45312C127.193 2.35938 127 2.28646 126.75 2.23438C126.5 2.18229 126.198 2.14583 125.844 2.125C125.5 2.09375 125.12 2.07812 124.703 2.07812V0.859375H131.828V2.07812C131.37 2.07812 130.984 2.09375 130.672 2.125C130.359 2.14583 130.099 2.19271 129.891 2.26562C129.693 2.33854 129.531 2.4375 129.406 2.5625C129.292 2.6875 129.188 2.84896 129.094 3.04688L123.766 14.4688V21.7656H126.5V23H110.25V21.7656ZM133.141 21.7656H135.875V2.07812H133.141V0.859375H157.344V8.46875H156.281L151.938 2.07812H146.656V11.375H149.016L151.078 6.21875H152.094V17.7812H151.078L149.016 12.5938H146.656V21.7656H152.484L157.016 14.6562H158.094V23H133.141V21.7656ZM162 21.7656C162.906 21.7656 163.589 21.7188 164.047 21.625C164.505 21.5208 164.734 21.2708 164.734 20.875V2.07812H162V0.859375H174.531L177.406 10.1094L180.438 0.859375H193.5V2.07812H190.766V21.7656H193.5V23H177.703V21.7656H180.438V5.35938L174.672 23H171.797L166.062 5.5625V20.7969C166.062 21.2344 166.286 21.5052 166.734 21.6094C167.193 21.7135 167.88 21.7656 168.797 21.7656V23H162V21.7656ZM209.75 14.5H210.797C211.057 15.0104 211.38 15.5625 211.766 16.1562C212.151 16.7396 212.604 17.3229 213.125 17.9062C213.646 18.4896 214.24 19.0521 214.906 19.5938C215.573 20.125 216.318 20.5938 217.141 21C217.964 21.4062 218.87 21.7344 219.859 21.9844C220.849 22.224 221.932 22.3438 223.109 22.3438C223.453 22.3438 223.839 22.3281 224.266 22.2969C224.693 22.2552 225.094 22.1771 225.469 22.0625C225.844 21.9375 226.156 21.7656 226.406 21.5469C226.667 21.3177 226.797 21.0156 226.797 20.6406C226.797 20.2448 226.63 19.8958 226.297 19.5938C225.974 19.2812 225.479 18.9844 224.812 18.7031C224.146 18.4115 223.302 18.1198 222.281 17.8281C221.271 17.5365 220.078 17.2083 218.703 16.8438C215.641 16.0521 213.37 14.9479 211.891 13.5312C210.422 12.1042 209.688 10.3646 209.688 8.3125C209.688 7.03125 209.948 5.89062 210.469 4.89062C211 3.89062 211.719 3.05208 212.625 2.375C213.542 1.6875 214.609 1.16667 215.828 0.8125C217.057 0.447917 218.365 0.265625 219.75 0.265625C220.458 0.265625 221.198 0.328125 221.969 0.453125C222.75 0.578125 223.51 0.75 224.25 0.96875C224.99 1.1875 225.688 1.45312 226.344 1.76562C227 2.06771 227.573 2.40104 228.062 2.76562L230.422 0.484375H231.5V7.28125H230.516C230.057 6.45833 229.469 5.69271 228.75 4.98438C228.031 4.27604 227.208 3.66146 226.281 3.14062C225.354 2.61979 224.328 2.20833 223.203 1.90625C222.078 1.60417 220.885 1.45312 219.625 1.45312C219.385 1.45312 219.078 1.46354 218.703 1.48438C218.328 1.49479 217.958 1.54688 217.594 1.64062C217.24 1.73438 216.932 1.88542 216.672 2.09375C216.411 2.29167 216.281 2.57292 216.281 2.9375C216.281 3.53125 216.818 4.10417 217.891 4.65625C218.974 5.19792 220.583 5.75 222.719 6.3125C223.625 6.55208 224.5 6.80729 225.344 7.07812C226.188 7.33854 226.974 7.64062 227.703 7.98438C228.443 8.31771 229.109 8.70312 229.703 9.14062C230.307 9.56771 230.823 10.0729 231.25 10.6562C231.677 11.2396 232.005 11.9062 232.234 12.6562C232.474 13.4062 232.594 14.2708 232.594 15.25C232.594 16.3854 232.385 17.4583 231.969 18.4688C231.552 19.4792 230.927 20.3646 230.094 21.125C229.271 21.8854 228.245 22.4896 227.016 22.9375C225.786 23.375 224.365 23.5938 222.75 23.5938C221.865 23.5938 221.031 23.526 220.25 23.3906C219.469 23.2552 218.708 23.0521 217.969 22.7812C217.24 22.5104 216.516 22.1719 215.797 21.7656C215.078 21.349 214.339 20.8646 213.578 20.3125L210.922 23.2969H209.75V14.5ZM240 21.7656H242.719V2.07812H240.469L236.641 9.79688H235.562V0.859375H260.672V9.79688H259.578L255.766 2.07812H253.5V21.7656H256.234V23H240V21.7656ZM263.562 11.9219C263.562 10.8906 263.667 9.88542 263.875 8.90625C264.094 7.92708 264.427 7.00521 264.875 6.14062C265.333 5.27604 265.917 4.48438 266.625 3.76562C267.333 3.04688 268.182 2.42708 269.172 1.90625C270.161 1.38542 271.302 0.984375 272.594 0.703125C273.885 0.411458 275.339 0.265625 276.953 0.265625C278.568 0.265625 280.021 0.411458 281.312 0.703125C282.604 0.984375 283.745 1.38542 284.734 1.90625C285.734 2.42708 286.589 3.04688 287.297 3.76562C288.005 4.48438 288.583 5.27604 289.031 6.14062C289.479 7.00521 289.807 7.92708 290.016 8.90625C290.234 9.88542 290.344 10.8906 290.344 11.9219C290.344 12.9531 290.234 13.9635 290.016 14.9531C289.807 15.9323 289.479 16.8542 289.031 17.7188C288.583 18.5833 288.005 19.375 287.297 20.0938C286.589 20.8125 285.734 21.4323 284.734 21.9531C283.745 22.474 282.604 22.875 281.312 23.1562C280.021 23.4479 278.568 23.5938 276.953 23.5938C275.339 23.5938 273.885 23.4479 272.594 23.1562C271.302 22.875 270.161 22.474 269.172 21.9531C268.182 21.4323 267.333 20.8125 266.625 20.0938C265.917 19.375 265.333 18.5833 264.875 17.7188C264.427 16.8542 264.094 15.9323 263.875 14.9531C263.667 13.974 263.562 12.9635 263.562 11.9219ZM276.953 22.5156C277.495 22.5156 277.943 22.3542 278.297 22.0312C278.661 21.7083 278.953 21.1458 279.172 20.3438C279.391 19.5312 279.542 18.4479 279.625 17.0938C279.719 15.7292 279.766 14.0052 279.766 11.9219C279.766 9.84896 279.719 8.13542 279.625 6.78125C279.542 5.41667 279.391 4.33333 279.172 3.53125C278.953 2.71875 278.661 2.15104 278.297 1.82812C277.943 1.50521 277.495 1.34375 276.953 1.34375C276.411 1.34375 275.958 1.50521 275.594 1.82812C275.24 2.15104 274.953 2.71875 274.734 3.53125C274.526 4.33333 274.375 5.41667 274.281 6.78125C274.198 8.13542 274.156 9.84896 274.156 11.9219C274.156 14.0052 274.198 15.7292 274.281 17.0938C274.375 18.4479 274.526 19.5312 274.734 20.3438C274.953 21.1458 275.24 21.7083 275.594 22.0312C275.958 22.3542 276.411 22.5156 276.953 22.5156ZM293.734 21.7656H296.469V2.07812H293.734V0.859375H311.594C313.021 0.859375 314.292 0.973958 315.406 1.20312C316.531 1.43229 317.474 1.78646 318.234 2.26562C319.005 2.73438 319.589 3.33333 319.984 4.0625C320.391 4.79167 320.594 5.65104 320.594 6.64062C320.594 7.50521 320.417 8.27604 320.062 8.95312C319.719 9.63021 319.125 10.2031 318.281 10.6719C317.448 11.1406 316.328 11.5052 314.922 11.7656C313.526 12.0156 311.781 12.1458 309.688 12.1562C311.562 12.1667 313.161 12.2604 314.484 12.4375C315.807 12.6042 316.885 12.901 317.719 13.3281C318.562 13.7448 319.177 14.3125 319.562 15.0312C319.948 15.7396 320.141 16.6406 320.141 17.7344C320.141 18.0365 320.135 18.2969 320.125 18.5156C320.125 18.724 320.12 18.974 320.109 19.2656C320.089 19.5677 320.078 19.8021 320.078 19.9688C320.078 20.125 320.078 20.3073 320.078 20.5156C320.078 20.8385 320.12 21.0833 320.203 21.25C320.297 21.4167 320.448 21.5 320.656 21.5C321 21.5 321.25 21.1667 321.406 20.5C321.562 19.8333 321.641 18.8698 321.641 17.6094H322.953V18.1094C322.953 19.1406 322.854 20.0104 322.656 20.7188C322.469 21.4271 322.125 22 321.625 22.4375C321.135 22.875 320.474 23.1875 319.641 23.375C318.807 23.5729 317.75 23.6719 316.469 23.6719C315.24 23.6719 314.219 23.5417 313.406 23.2812C312.594 23.0312 311.943 22.6562 311.453 22.1562C310.974 21.6562 310.635 21.0365 310.438 20.2969C310.24 19.5573 310.141 18.7031 310.141 17.7344C310.141 16.6719 310.083 15.8021 309.969 15.125C309.865 14.4479 309.698 13.9167 309.469 13.5312C309.24 13.1354 308.938 12.8646 308.562 12.7188C308.198 12.5729 307.76 12.5 307.25 12.5V21.7656H309.969V23H293.734V21.7656ZM307.25 11.2656C307.812 11.2656 308.302 11.1979 308.719 11.0625C309.135 10.9271 309.479 10.6875 309.75 10.3438C310.031 10 310.24 9.53125 310.375 8.9375C310.51 8.33333 310.578 7.56771 310.578 6.64062C310.578 5.71354 310.51 4.95833 310.375 4.375C310.24 3.78125 310.031 3.31771 309.75 2.98438C309.479 2.64062 309.135 2.40625 308.719 2.28125C308.302 2.14583 307.812 2.07812 307.25 2.07812V11.2656ZM325.453 21.7656H328.188V2.07812H325.453V0.859375H349.656V8.46875H348.594L344.25 2.07812H338.969V11.375H341.328L343.391 6.21875H344.406V17.7812H343.391L341.328 12.5938H338.969V21.7656H344.797L349.328 14.6562H350.406V23H325.453V21.7656ZM355.719 14.5H356.766C357.026 15.0104 357.349 15.5625 357.734 16.1562C358.12 16.7396 358.573 17.3229 359.094 17.9062C359.615 18.4896 360.208 19.0521 360.875 19.5938C361.542 20.125 362.286 20.5938 363.109 21C363.932 21.4062 364.839 21.7344 365.828 21.9844C366.818 22.224 367.901 22.3438 369.078 22.3438C369.422 22.3438 369.807 22.3281 370.234 22.2969C370.661 22.2552 371.062 22.1771 371.438 22.0625C371.812 21.9375 372.125 21.7656 372.375 21.5469C372.635 21.3177 372.766 21.0156 372.766 20.6406C372.766 20.2448 372.599 19.8958 372.266 19.5938C371.943 19.2812 371.448 18.9844 370.781 18.7031C370.115 18.4115 369.271 18.1198 368.25 17.8281C367.24 17.5365 366.047 17.2083 364.672 16.8438C361.609 16.0521 359.339 14.9479 357.859 13.5312C356.391 12.1042 355.656 10.3646 355.656 8.3125C355.656 7.03125 355.917 5.89062 356.438 4.89062C356.969 3.89062 357.688 3.05208 358.594 2.375C359.51 1.6875 360.578 1.16667 361.797 0.8125C363.026 0.447917 364.333 0.265625 365.719 0.265625C366.427 0.265625 367.167 0.328125 367.938 0.453125C368.719 0.578125 369.479 0.75 370.219 0.96875C370.958 1.1875 371.656 1.45312 372.312 1.76562C372.969 2.06771 373.542 2.40104 374.031 2.76562L376.391 0.484375H377.469V7.28125H376.484C376.026 6.45833 375.438 5.69271 374.719 4.98438C374 4.27604 373.177 3.66146 372.25 3.14062C371.323 2.61979 370.297 2.20833 369.172 1.90625C368.047 1.60417 366.854 1.45312 365.594 1.45312C365.354 1.45312 365.047 1.46354 364.672 1.48438C364.297 1.49479 363.927 1.54688 363.562 1.64062C363.208 1.73438 362.901 1.88542 362.641 2.09375C362.38 2.29167 362.25 2.57292 362.25 2.9375C362.25 3.53125 362.786 4.10417 363.859 4.65625C364.943 5.19792 366.552 5.75 368.688 6.3125C369.594 6.55208 370.469 6.80729 371.312 7.07812C372.156 7.33854 372.943 7.64062 373.672 7.98438C374.411 8.31771 375.078 8.70312 375.672 9.14062C376.276 9.56771 376.792 10.0729 377.219 10.6562C377.646 11.2396 377.974 11.9062 378.203 12.6562C378.443 13.4062 378.562 14.2708 378.562 15.25C378.562 16.3854 378.354 17.4583 377.938 18.4688C377.521 19.4792 376.896 20.3646 376.062 21.125C375.24 21.8854 374.214 22.4896 372.984 22.9375C371.755 23.375 370.333 23.5938 368.719 23.5938C367.833 23.5938 367 23.526 366.219 23.3906C365.438 23.2552 364.677 23.0521 363.938 22.7812C363.208 22.5104 362.484 22.1719 361.766 21.7656C361.047 21.349 360.307 20.8646 359.547 20.3125L356.891 23.2969H355.719V14.5Z" fill="#E14E4E"/>
</svg>
